<?xml version="1.0" encoding="utf-8"?>
<!-- Generator: Adobe Illustrator 17.0.0, SVG Export Plug-In . SVG Version: 6.00 Build 0)  -->
<!DOCTYPE svg PUBLIC "-//W3C//DTD SVG 1.1//EN" "http://www.w3.org/Graphics/SVG/1.1/DTD/svg11.dtd">
<svg version="1.1" id="Layer_1" xmlns="http://www.w3.org/2000/svg" xmlns:xlink="http://www.w3.org/1999/xlink" x="0px" y="0px"
	 width="44.94px" height="38.5px" viewBox="0 0 44.94 38.5" enable-background="new 0 0 44.94 38.5" xml:space="preserve">
<path display="none" fill="#CCEED3" d="M27.261,0.193c-0.026-0.08-0.096-0.139-0.179-0.151L23.067-0.54l-1.795-3.631
	c-0.037-0.076-0.115-0.124-0.199-0.124s-0.162,0.048-0.199,0.124L19.078-0.54l-4.015,0.582c-0.084,0.012-0.153,0.07-0.179,0.151
	c-0.026,0.08-0.004,0.168,0.056,0.227l2.905,2.826L17.16,7.237c-0.014,0.083,0.02,0.167,0.088,0.217
	c0.069,0.05,0.159,0.056,0.234,0.017l3.591-1.884l3.591,1.884c0.032,0.017,0.068,0.025,0.103,0.025c0.046,0,0.092-0.014,0.131-0.042
	C24.966,7.404,25,7.32,24.986,7.237L24.3,3.247l2.905-2.826C27.266,0.361,27.288,0.273,27.261,0.193z"/>
<path display="none" fill-rule="evenodd" clip-rule="evenodd" fill="#CCEFD4" d="M27.177,2.24
	c0.728,8.305-2.182,17.851-7.694,23.227c-3.91,3.814-10.449,7.378-13.567,5.143C-0.299,26.156,8.699,9.076,22.282-0.042
	C9.516,9.076,1.139,25.711,7.086,29.335c2.559,1.559,8.805-1.299,13.365-6.819c-3.587-2.596-7.049-5.067-10.636-7.662
	c4.427,0.008,9.765,0.017,14.191,0.025C25.615,10.667,26.355,6.701,27.177,2.24z"/>
<path display="none" fill-rule="evenodd" clip-rule="evenodd" fill="#34BCC2" d="M44.066,15.799
	c-4.039,0.008-8.079,0.016-12.118,0.024c0.001,0.004,0.001,0.009,0.002,0.013c1.032,8.215-8.842,16.394-8.842,16.394
	c9.873-9.394,7.677-16.405,7.677-16.405c-0.934-2.896-1.869-5.792-2.804-8.688c0.057,7.511-2.544,14.924-7.933,20.198
	c-4.316,4.224-9.519,6.691-12.86,6.042c-4.551-0.884-8.624-9.333,2.611-23.461C-7.013,30.794,3.51,38.592,9.732,39.887
	c7.27,1.257,15.92-4.661,19.681-9.529c2.674,1.95,5.347,3.901,8.021,5.851c-1.377-4.207-2.752-8.415-4.128-12.624
	C36.893,20.99,40.479,18.395,44.066,15.799z"/>
<g>
	<path fill="#CCE6D0" d="M23.463,4.238c-0.023-0.071-0.084-0.122-0.157-0.133l-3.514-0.513l-1.571-3.199
		c-0.033-0.067-0.1-0.109-0.174-0.109s-0.142,0.042-0.174,0.109l-1.572,3.199l-3.514,0.513c-0.073,0.011-0.134,0.062-0.157,0.133
		c-0.023,0.07-0.004,0.148,0.049,0.2l2.543,2.49l-0.6,3.516c-0.012,0.073,0.017,0.147,0.077,0.191
		c0.06,0.044,0.139,0.05,0.205,0.015l3.143-1.66l3.143,1.66c0.028,0.015,0.06,0.022,0.091,0.022c0.04,0,0.08-0.012,0.114-0.037
		c0.06-0.044,0.09-0.118,0.077-0.191l-0.6-3.516l2.543-2.49C23.467,4.386,23.486,4.308,23.463,4.238z"/>
	<path fill-rule="evenodd" clip-rule="evenodd" fill="#CCE6D0" d="M23.389,6.041c0.638,7.317-1.91,15.727-6.734,20.463
		c-3.423,3.36-9.145,6.5-11.874,4.531c-5.439-3.924,2.435-18.971,14.324-27.005C7.932,12.064,0.599,26.719,5.804,29.912
		c2.239,1.374,7.706-1.145,11.698-6.008c-3.14-2.287-6.17-4.464-9.309-6.75c3.875,0.007,8.546,0.015,12.421,0.022
		C22.022,13.465,22.669,9.972,23.389,6.041z"/>
	<path fill-rule="evenodd" clip-rule="evenodd" fill="#35BBC1" d="M38.171,16.857c-3.535,0.007-7.071,0.014-10.606,0.021
		c0,0.004,0.001,0.008,0.001,0.012c0.903,7.238-7.739,14.443-7.739,14.443c8.641-8.276,6.719-14.453,6.719-14.453
		c-0.818-2.551-1.636-5.103-2.454-7.654c0.049,6.617-2.227,13.148-6.943,17.794c-3.778,3.721-8.331,5.895-11.255,5.323
		c-3.983-0.779-7.548-8.222,2.285-20.669C-6.535,30.068,2.675,36.937,8.121,38.079c6.363,1.108,13.934-4.107,17.226-8.395
		c2.341,1.718,4.68,3.437,7.02,5.155c-1.205-3.707-2.409-7.414-3.613-11.122C31.893,21.43,35.032,19.144,38.171,16.857z"/>
	<polygon fill="#CCE6D0" points="26.153,8.182 28.678,15.336 40.486,15.925 30.736,23.998 34.103,34.636 31.718,24.61 
		44.625,14.442 29.052,14.371 	"/>
</g>
</svg>
