<?xml version="1.0" encoding="iso-8859-1"?>
<!-- Generator: Adobe Illustrator 19.0.0, SVG Export Plug-In . SVG Version: 6.00 Build 0)  -->
<svg xmlns="http://www.w3.org/2000/svg" xmlns:xlink="http://www.w3.org/1999/xlink" version="1.1" id="Capa_1" x="0px" y="0px" viewBox="0 0 512 512" style="enable-background:new 0 0 512 512;" xml:space="preserve" width="512px" height="512px">
<g>
	<g>
		<path d="M256,88.334c-43.378,0-78.669,35.291-78.669,78.669s35.291,78.669,78.669,78.669s78.669-35.291,78.669-78.669    S299.378,88.334,256,88.334z" fill="#35bbc1"/>
	</g>
</g>
<g>
	<g>
		<path d="M426.294,170.294C426.294,76.394,349.901,0,256,0S85.706,76.394,85.706,170.294c0,98.37,126.103,274.746,153.396,311.765    h-55.585V512h144.968v-29.941h-55.578C300.229,445.052,426.294,268.953,426.294,170.294z M147.39,167.003    c0-59.888,48.722-108.61,108.61-108.61s108.61,48.722,108.61,108.61S315.888,275.613,256,275.613S147.39,226.891,147.39,167.003z" fill="#35bbc1"/>
	</g>
</g>
<g>
</g>
<g>
</g>
<g>
</g>
<g>
</g>
<g>
</g>
<g>
</g>
<g>
</g>
<g>
</g>
<g>
</g>
<g>
</g>
<g>
</g>
<g>
</g>
<g>
</g>
<g>
</g>
<g>
</g>
</svg>
